<?xml version="1.0" standalone="no"?>
<!DOCTYPE svg PUBLIC "-//W3C//DTD SVG 20010904//EN"
 "http://www.w3.org/TR/2001/REC-SVG-20010904/DTD/svg10.dtd">
<svg version="1.0" xmlns="http://www.w3.org/2000/svg"
 width="512.000000pt" height="512.000000pt" viewBox="0 0 512.000000 512.000000"
 preserveAspectRatio="xMidYMid meet">
<metadata>
Created by potrace 1.11, written by Peter Selinger 2001-2013
</metadata>
<g transform="translate(0.000000,512.000000) scale(0.100000,-0.100000)"
fill="#000000" stroke="none">
<path d="M2065 5101 c-188 -87 -145 -362 60 -387 11 -1 67 -3 125 -3 l105 -1
0 -175 c0 -96 -2 -175 -5 -176 -3 0 -20 -2 -38 -5 -93 -12 -289 -59 -347 -84
-11 -5 -42 -16 -70 -26 -106 -38 -303 -148 -427 -240 l-38 -27 -120 121 c-66
66 -120 124 -120 129 0 5 36 44 81 88 112 111 136 169 108 268 -13 48 -74 111
-124 127 -53 17 -137 7 -177 -22 -54 -38 -632 -620 -655 -660 -33 -57 -28
-152 12 -209 57 -81 161 -110 248 -70 23 11 78 56 122 100 44 45 84 81 89 81
5 0 63 -54 129 -120 l120 -120 -27 -38 c-190 -259 -318 -569 -350 -854 -1 -10
-6 -21 -10 -25 -4 -5 -84 -8 -177 -8 l-169 0 0 65 c-1 201 -13 246 -78 299
-82 68 -201 61 -274 -16 -58 -60 -58 -62 -58 -545 0 -278 4 -457 11 -481 12
-44 59 -102 101 -123 35 -18 111 -25 153 -13 43 12 99 62 121 106 19 40 22 66
23 208 l1 90 175 0 175 0 6 -35 c7 -46 32 -179 38 -205 6 -29 46 -157 56 -180
68 -159 95 -215 143 -295 31 -52 75 -121 98 -152 l42 -58 -120 -120 c-66 -66
-124 -120 -129 -120 -4 0 -49 40 -98 89 -100 98 -143 118 -225 107 -146 -20
-221 -190 -137 -311 42 -61 633 -641 671 -659 57 -27 143 -19 197 20 78 55
109 163 70 246 -9 21 -54 75 -100 121 -45 46 -82 88 -82 92 0 5 54 62 120 127
126 125 129 127 172 85 24 -23 152 -104 233 -147 153 -82 358 -152 520 -180
39 -6 81 -15 95 -18 l25 -7 0 -173 1 -172 -111 -1 c-125 -1 -145 -3 -190 -25
-95 -45 -140 -178 -91 -271 22 -43 80 -91 125 -103 25 -7 200 -10 483 -10 407
1 446 2 483 19 141 65 163 254 42 345 -53 40 -75 44 -227 45 l-106 1 1 175 c0
96 2 175 5 176 3 0 14 2 25 4 11 2 36 6 55 8 256 36 568 170 807 347 l33 23
120 -120 c66 -66 120 -124 120 -129 0 -4 -40 -49 -89 -98 -92 -95 -111 -129
-111 -207 0 -50 38 -116 88 -152 57 -42 139 -49 201 -18 46 24 628 598 673
665 23 34 26 49 25 105 -2 49 -8 76 -24 102 -33 53 -94 91 -153 97 -79 7 -123
-15 -224 -117 l-89 -90 -125 125 c-114 114 -123 126 -111 144 172 242 264 431
325 670 14 52 27 120 31 150 9 89 -1 85 192 85 l171 0 1 -110 c1 -126 3 -145
25 -192 32 -67 135 -122 205 -110 80 15 150 75 169 146 7 25 10 199 10 482 -1
480 -1 482 -58 542 -73 77 -192 84 -274 16 -66 -53 -75 -91 -77 -314 l-1 -50
-169 0 c-93 0 -173 4 -177 8 -8 8 -9 8 -17 78 -8 70 -51 232 -88 333 -53 147
-151 327 -255 469 l-27 37 120 120 c66 66 124 120 128 120 5 0 49 -40 100 -89
101 -97 138 -116 217 -109 148 15 230 192 144 313 -29 42 -615 626 -650 649
-17 11 -54 20 -90 23 -51 4 -69 1 -105 -19 -60 -32 -103 -94 -109 -158 -7 -78
15 -123 113 -220 46 -47 84 -89 85 -94 0 -5 -54 -63 -120 -129 l-120 -120 -33
24 c-153 115 -350 218 -534 278 -121 40 -128 42 -248 62 -120 20 -110 1 -110
198 l-1 171 41 0 c200 3 214 4 251 22 100 48 144 150 108 253 -17 50 -80 110
-130 124 -25 7 -196 11 -484 11 -412 0 -448 -2 -485 -19z m610 -1145 c329 -24
635 -166 876 -406 151 -150 263 -330 338 -543 17 -48 28 -87 25 -87 -2 0 0 -8
5 -18 5 -10 12 -36 15 -58 4 -22 8 -49 10 -59 10 -53 18 -149 18 -221 2 -486
-258 -950 -672 -1201 -135 -81 -314 -152 -450 -178 -37 -7 -98 -16 -135 -20
-51 -6 -254 -7 -280 -1 -11 2 -42 7 -68 10 -226 31 -464 130 -645 270 -307
236 -498 574 -548 971 -5 42 -5 233 0 275 2 19 7 62 11 95 10 79 56 233 101
337 149 340 441 619 779 745 22 8 49 19 60 24 59 25 221 57 340 66 44 3 81 7
83 8 1 1 15 1 30 -1 15 -1 63 -5 107 -8z"/>
<path d="M2410 3333 c-140 -36 -236 -141 -257 -283 -17 -112 17 -211 101 -295
165 -165 451 -112 548 103 119 262 -116 546 -392 475z"/>
<path d="M3008 2606 c-1 -2 -25 -6 -53 -9 -100 -10 -204 -66 -268 -143 -29
-36 -81 -124 -73 -124 4 0 2 -9 -4 -19 -5 -11 -13 -51 -16 -88 -21 -238 167
-445 404 -445 248 0 431 196 415 446 -11 182 -166 347 -348 373 -16 2 -35 6
-42 8 -6 2 -13 2 -15 1z"/>
<path d="M1927 2458 c-214 -46 -296 -303 -146 -458 57 -58 118 -84 200 -84
196 1 327 202 249 381 -49 115 -184 187 -303 161z"/>
</g>
</svg>
